PathFileType	4	(X/Y/Z)	/Users/itak/Documents/Research/Walk-IL/dataset/trc/00460_00167.trc
DataRate	CameraRate	NumFrames	NumMarkers	Units	OrigDataRate	OrigDataStartFrame	OrigNumFrames
100.000000	100.000000	4	53	mm	100.000000	170	683
Frame#	Time	RPSI			LPSI			L3			STRN			T10			C7			CLAV			RBAK			LBAK			LSHO			LUPA			LAEL			LAOL			LWTS			LWPS			LFRA			LIFD			LHPS			LHTS			RSHO			RUPA			RAEL			RAOL			RWTS			RWPS			RFRA			RIFD			RHTS			RHPS			RBHD			LFHD			RFHD			LBHD			LHIP			RHIP			RASI			LASI			LKNE			LTHI			LANK			LTIP			LTOE			LMT1			LMT5			LHEE			RKNE			RTHI			RANK			RTIP			RTOE			RMT1			RMT5			RHEE			
		X1	Y1	Z1	X2	Y2	Z2	X3	Y3	Z3	X4	Y4	Z4	X5	Y5	Z5	X6	Y6	Z6	X7	Y7	Z7	X8	Y8	Z8	X9	Y9	Z9	X10	Y10	Z10	X11	Y11	Z11	X12	Y12	Z12	X13	Y13	Z13	X14	Y14	Z14	X15	Y15	Z15	X16	Y16	Z16	X17	Y17	Z17	X18	Y18	Z18	X19	Y19	Z19	X20	Y20	Z20	X21	Y21	Z21	X22	Y22	Z22	X23	Y23	Z23	X24	Y24	Z24	X25	Y25	Z25	X26	Y26	Z26	X27	Y27	Z27	X28	Y28	Z28	X29	Y29	Z29	X30	Y30	Z30	X31	Y31	Z31	X32	Y32	Z32	X33	Y33	Z33	X34	Y34	Z34	X35	Y35	Z35	X36	Y36	Z36	X37	Y37	Z37	X38	Y38	Z38	X39	Y39	Z39	X40	Y40	Z40	X41	Y41	Z41	X42	Y42	Z42	X43	Y43	Z43	X44	Y44	Z44	X45	Y45	Z45	X46	Y46	Z46	X47	Y47	Z47	X48	Y48	Z48	X49	Y49	Z49	X50	Y50	Z50	X51	Y51	Z51	X52	Y52	Z52	X53	Y53	Z53	

171	1.7	-1167.9833984375	969.4204711914062	-566.2035522460938	-1180.31201171875	969.8870849609375	-708.1591186523438	-1153.025390625	1054.178955078125	-625.751953125	-887.0380859375	1248.902099609375	-686.724609375	-1168.784423828125	1179.012939453125	-630.3161010742188	-1102.154418945312	1447.251831054688	-638.4910278320312	-922.3759765625	1361.887451171875	-688.0118408203125	-1145.485473632812	1331.42724609375	-530.9691772460938	-1155.32763671875	1396.34130859375	-727.2637329101562	-1073.2587890625	1417.177734375	-828.2575073242188	-1103.324462890625	1295.338256835938	-917.6141357421875	-1087.237915039062	1077.42578125	-946.4213256835938	-1154.804077148438	1067.330200195312	-868.3320922851562	-1001.374084472656	876.7293090820312	-902.8842163085938	-1054.257690429688	858.9536743164062	-952.569580078125	-1067.1982421875	989.1798095703125	-954.7046508789062	-1002.390502929688	706.1116333007812	-896.571533203125	-1049.14208984375	779.7180786132812	-947.1716918945312	-986.7302856445312	788.3751220703125	-909.0276489257812	-1003.783569335938	1422.396362304688	-494.8452453613281	-1008.059387207031	1363.636596679688	-415.8583068847656	-992.0235595703125	1080.455444335938	-348.0306701660156	-1053.300537109375	1063.80712890625	-371.4774169921875	-908.911376953125	873.557861328125	-416.1131286621094	-954.9356079101562	860.9737548828125	-341.5741882324219	-985.142578125	1021.645446777344	-339.0904541015625	-905.5564575195312	717.4099731445312	-404.3160095214844	-890.5237426757812	776.4046020507812	-406.2393798828125	-939.4769287109375	774.087646484375	-347.1961669921875	-1000.784606933594	1648.38232421875	-577.599365234375	-894.869873046875	1655.86669921875	-755.071533203125	-872.166748046875	1659.196655273438	-626.322021484375	-1047.297607421875	1649.116943359375	-749.415283203125	-1061.1201171875	858.6187744140625	-840.7189331054688	-1044.557495117188	856.0369262695312	-440.9412231445312	-943.7321166992188	893.3887939453125	-513.4484252929688	-956.8405151367188	891.7426147460938	-770.27978515625	-1070.807739257812	438.3047790527344	-780.9769287109375	-1041.571166992188	587.843505859375	-815.505126953125	-1172.8212890625	36.86759185791016	-744.8480224609375	-1087.649780273438	290.1170654296875	-782.5235595703125	-933.989990234375	46.89406204223633	-691.6781005859375	-1006.788757324219	54.31048583984375	-657.3311157226562	-1020.786682128906	46.15956115722656	-769.7786865234375	-1211.020874023438	46.13751220703125	-676.6618041992188	-1008.287414550781	462.2085266113281	-454.2097473144531	-998.568359375	723.5504760742188	-428.6705017089844	-1122.886108398438	45.90504455566406	-415.3214416503906	-1029.994750976562	325.2697143554688	-434.1991271972656	-916.6804809570312	48.0178108215332	-487.7659301757812	-982.6234130859375	52.55394744873047	-517.7481079101562	-986.801025390625	46.67764282226562	-409.9482421875	-1195.60107421875	42.90372848510742	-453.9785766601562	
172	1.71	-1166.956176757812	968.196533203125	-567.6138305664062	-1179.433227539062	969.29443359375	-709.6791381835938	-1152.03125	1053.855224609375	-627.4117431640625	-885.8060302734375	1248.432250976562	-688.9205322265625	-1167.585815429688	1178.817626953125	-631.9093017578125	-1100.570190429688	1446.971801757812	-640.2601318359375	-920.9780883789062	1361.465942382812	-690.130615234375	-1143.835205078125	1331.133544921875	-532.647216796875	-1153.978515625	1396.131713867188	-728.8907470703125	-1072.097045898438	1416.830444335938	-830.0864868164062	-1102.585205078125	1294.985595703125	-919.4030151367188	-1086.6796875	1076.95751953125	-948.0828857421875	-1154.107788085938	1067.00390625	-869.8621826171875	-1000.89111328125	876.2355346679688	-904.4931640625	-1053.917358398438	858.4576416015625	-954.05029296875	-1066.743041992188	988.6766967773438	-956.3104248046875	-1001.953735351562	705.6326293945312	-897.9874267578125	-1048.970092773438	779.345703125	-948.5264282226562	-986.2537231445312	787.9330444335938	-910.6220092773438	-1001.966003417969	1421.92578125	-496.8034362792969	-1006.187316894531	1363.178833007812	-417.8651428222656	-990.3804321289062	1080.298828125	-349.3065490722656	-1051.680053710938	1063.554809570312	-372.6920471191406	-906.9784545898438	873.40771484375	-416.9849243164062	-953.0423583984375	860.8989868164062	-342.4920654296875	-983.4611206054688	1021.5205078125	-340.2615051269531	-903.4397583007812	717.3024291992188	-405.0075988769531	-888.467529296875	776.3079223632812	-406.9807434082031	-937.4818115234375	774.0543823242188	-347.9385986328125	-998.7991333007812	1648.078247070312	-579.7046508789062	-892.9724731445312	1655.205932617188	-757.2830810546875	-870.1790771484375	1658.591430664062	-628.5481567382812	-1045.414916992188	1648.779663085938	-751.4664306640625	-1060.180053710938	858.3197631835938	-842.4951782226562	-1042.3017578125	855.306884765625	-442.3848876953125	-942.2074584960938	893.2064208984375	-515.5555419921875	-955.8980102539062	891.5079956054688	-772.2696533203125	-1069.87890625	438.0192260742188	-781.9314575195312	-1040.352294921875	587.4930419921875	-816.70654296875	-1172.828369140625	36.77413558959961	-745.0017700195312	-1086.85205078125	289.7311706542969	-783.0368041992188	-934.1331787109375	46.99153518676758	-691.376708984375	-1006.950622558594	54.28517913818359	-657.1394653320312	-1020.767700195312	46.22189712524414	-769.6293334960938	-1211.153442382812	46.09556198120117	-676.8935546875	-1001.167114257812	462.2787170410156	-456.2262878417969	-994.7459106445312	723.208251953125	-430.3397827148438	-1122.424438476562	47.41500473022461	-415.498779296875	-1025.183471679688	325.7436828613281	-435.4600524902344	-916.359130859375	47.75864410400391	-487.6755981445312	-982.1676025390625	52.56303787231445	-517.7230224609375	-986.6385498046875	46.59499740600586	-409.9605712890625	-1195.154541015625	45.69741439819336	-454.2321166992188	
173	1.72	-1165.947265625	966.9824829101562	-569.0358276367188	-1178.555541992188	968.6909790039062	-711.2311401367188	-1151.05810546875	1053.569702148438	-629.1121215820312	-884.559814453125	1247.965454101562	-691.0952758789062	-1166.356323242188	1178.655029296875	-633.5538330078125	-1098.94140625	1446.717895507812	-642.060791015625	-919.5709838867188	1361.055541992188	-692.238037109375	-1142.195678710938	1330.868286132812	-534.3807983398438	-1152.571411132812	1395.955444335938	-730.5711059570312	-1070.8515625	1416.505004882812	-831.9483032226562	-1101.7373046875	1294.627563476562	-921.2254028320312	-1085.99169921875	1076.478393554688	-949.7791137695312	-1153.3408203125	1066.684204101562	-871.4674682617188	-1000.385131835938	875.7175903320312	-906.07861328125	-1053.512451171875	857.9519653320312	-955.5538330078125	-1066.181030273438	988.1521606445312	-957.9427490234375	-1001.507934570312	705.1246948242188	-899.4191284179688	-1048.740234375	778.9315185546875	-949.9309692382812	-985.77099609375	787.447998046875	-912.201171875	-1000.153259277344	1421.459716796875	-498.7509765625	-1004.348999023438	1362.713623046875	-419.8728332519531	-988.7345581054688	1080.135375976562	-350.6032104492188	-1050.057739257812	1063.276977539062	-373.9278259277344	-905.0181884765625	873.2637939453125	-417.8587646484375	-951.1287231445312	860.8267822265625	-343.4259948730469	-981.7711181640625	1021.390991210938	-341.4500122070312	-901.22998046875	717.2067260742188	-405.6731567382812	-886.3790893554688	776.1923828125	-407.7003173828125	-935.43408203125	774.0198364257812	-348.6716613769531	-996.7326049804688	1647.80615234375	-581.8160400390625	-890.987060546875	1654.552856445312	-759.4928588867188	-868.1100463867188	1658.004028320312	-630.7839965820312	-1043.451904296875	1648.478149414062	-753.53955078125	-1059.239135742188	857.990478515625	-844.2494506835938	-1039.975463867188	854.6654052734375	-443.811279296875	-940.6807250976562	893.149658203125	-517.6682739257812	-954.9445190429688	891.2351684570312	-774.2614135742188	-1069.042236328125	437.7246704101562	-782.888427734375	-1039.197509765625	587.1140747070312	-817.9078979492188	-1172.832885742188	36.68070602416992	-745.1551513671875	-1086.122314453125	289.3526611328125	-783.5372314453125	-934.319580078125	47.07860946655273	-691.1080932617188	-1007.137573242188	54.26506042480469	-656.970947265625	-1020.76025390625	46.27467727661133	-769.4939575195312	-1211.272705078125	46.04651641845703	-677.1295166015625	-993.458740234375	462.6451721191406	-458.3861694335938	-990.6441040039062	723.0173950195312	-432.1431274414062	-1121.870361328125	49.40946960449219	-415.729736328125	-1019.978088378906	326.5509643554688	-436.7953796386719	-916.0307006835938	47.49917984008789	-487.5928649902344	-981.6598510742188	52.54545974731445	-517.7131958007812	-986.4694213867188	46.56524276733398	-410.0355834960938	-1194.558715820312	49.22237014770508	-454.6075439453125	
174	1.73	-1164.945068359375	965.8246459960938	-570.4742431640625	-1177.67236328125	968.0938720703125	-712.8086547851562	-1150.102172851562	1053.341674804688	-630.8535766601562	-883.2890014648438	1247.517211914062	-693.2465209960938	-1165.0869140625	1178.543579101562	-635.2540283203125	-1097.259887695312	1446.501953125	-643.8892211914062	-918.1441650390625	1360.668701171875	-694.3276977539062	-1140.563232421875	1330.6494140625	-536.1671752929688	-1151.099731445312	1395.825073242188	-732.3033447265625	-1069.5205078125	1416.219848632812	-833.8431396484375	-1100.758422851562	1294.27783203125	-923.0734252929688	-1085.154907226562	1076.008544921875	-951.5009155273438	-1152.492797851562	1066.388305664062	-873.14599609375	-999.8543090820312	875.1808471679688	-907.6362915039062	-1053.041381835938	857.4519653320312	-957.0806274414062	-1065.499389648438	987.6260375976562	-959.5960083007812	-1001.090576171875	704.5930786132812	-900.8699340820312	-1048.454833984375	778.4816284179688	-951.39111328125	-985.3447875976562	786.9111328125	-913.7496948242188	-998.3416748046875	1421.012939453125	-500.6873168945312	-1002.542785644531	1362.260620117188	-421.8775939941406	-987.089111328125	1079.983154296875	-351.9272155761719	-1048.430908203125	1062.98828125	-375.1928405761719	-903.0386352539062	873.141845703125	-418.73828125	-949.204345703125	860.7695922851562	-344.3768615722656	-980.0769653320312	1021.272888183594	-342.6646118164062	-898.9436645507812	717.137451171875	-406.3078308105469	-884.258056640625	776.0789184570312	-408.3939208984375	-933.3468627929688	773.994873046875	-349.39990234375	-994.5784912109375	1647.571655273438	-583.92724609375	-888.9100952148438	1653.915649414062	-761.6927490234375	-865.9508666992188	1657.438598632812	-633.02099609375	-1041.399658203125	1648.21533203125	-755.6312255859375	-1058.301025390625	857.622314453125	-845.96630859375	-1037.579833984375	854.1455688476562	-445.2352600097656	-939.16455078125	893.2454223632812	-519.7883911132812	-953.9845581054688	890.9334106445312	-776.254150390625	-1068.315307617188	437.4269104003906	-783.84814453125	-1038.143920898438	586.7177734375	-819.1165771484375	-1172.838256835938	36.59024810791016	-745.3020629882812	-1085.482543945312	288.9892578125	-784.0437622070312	-934.5254516601562	47.15533447265625	-690.8820190429688	-1007.338562011719	54.26468658447266	-656.8333129882812	-1020.769470214844	46.31625747680664	-769.3786010742188	-1211.376953125	45.9930305480957	-677.3610229492188	-985.1170043945312	463.3465576171875	-460.6795043945312	-986.2213745117188	723.01025390625	-434.148681640625	-1121.19140625	51.98773574829102	-416.047607421875	-1014.304809570312	327.7364196777344	-438.2249145507812	-915.7075805664062	47.24034118652344	-487.5261840820312	-981.0935668945312	52.49720764160156	-517.7315063476562	-986.2859497070312	46.61637496948242	-410.1908874511719	-1193.759521484375	53.57228851318359	-455.1337890625	
